<svg xmlns="http://www.w3.org/2000/svg" width="148.686" height="87.419" viewBox="0 0 148.686 87.419">
  <g id="logo-footer" transform="translate(-117.604 -131)">
    <g id="Group_14666" data-name="Group 14666" transform="translate(117.604 131)">
      <g id="Group_18" data-name="Group 18" transform="translate(0 20.578)">
        <g id="Group_17" data-name="Group 17" transform="translate(82.912)">
          <g id="Group_16" data-name="Group 16" transform="translate(0)">
            <g id="Group_15" data-name="Group 15">
              <g id="Group_14" data-name="Group 14">
                <g id="Group_13" data-name="Group 13">
                  <path id="Path_47" data-name="Path 47" d="M286.837,169.721a47.891,47.891,0,0,0-4.47-8.066,47.337,47.337,0,0,0-4.47,8.066,30.736,30.736,0,0,1,4.47,6.1,30.437,30.437,0,0,1,4.47-6.1" transform="translate(-249.478 -161.655)" fill="#018837"/>
                  <path id="Path_48" data-name="Path 48" d="M277.9,243.663a47.36,47.36,0,0,0,4.47,8.065,47.894,47.894,0,0,0,4.47-8.065,30.549,30.549,0,0,1-4.47-6.1,30.873,30.873,0,0,1-4.47,6.1" transform="translate(-249.476 -184.886)" fill="#018837"/>
                  <path id="Path_49" data-name="Path 49" d="M274.2,170.611a47.268,47.268,0,0,0-6.951-6.051,47.387,47.387,0,0,0-1.44,9.111,30.875,30.875,0,0,1,6.28,4.2,30.853,30.853,0,0,1,2.112-7.257" transform="translate(-245.778 -162.543)" fill="#018837"/>
                  <path id="Path_50" data-name="Path 50" d="M290.779,243.151a47.276,47.276,0,0,0,6.951,6.051,47.844,47.844,0,0,0,1.439-9.107,31.014,31.014,0,0,1-6.281-4.2,31.012,31.012,0,0,1-2.11,7.26" transform="translate(-253.422 -184.375)" fill="#018837"/>
                  <path id="Path_51" data-name="Path 51" d="M262.012,176.229a47.733,47.733,0,0,0-8.6-3.308,47.238,47.238,0,0,0,1.76,9.057,30.576,30.576,0,0,1,7.334,1.792,30.568,30.568,0,0,1-.494-7.542" transform="translate(-241.985 -165.102)" fill="#018837"/>
                  <path id="Path_52" data-name="Path 52" d="M302.65,238.616a47.429,47.429,0,0,0,8.6,3.308,47.2,47.2,0,0,0-1.76-9.053,30.566,30.566,0,0,1-7.337-1.8,30.637,30.637,0,0,1,.5,7.553" transform="translate(-256.901 -182.895)" fill="#018837"/>
                  <path id="Path_53" data-name="Path 53" d="M254.922,192.75a31.019,31.019,0,0,1-3.039-6.919,47.085,47.085,0,0,0-9.214-.163,47.7,47.7,0,0,0,4.743,7.9,30.684,30.684,0,0,1,7.512-.827" transform="translate(-238.697 -168.957)" fill="#018837"/>
                  <path id="Path_54" data-name="Path 54" d="M308.34,223.327a30.432,30.432,0,0,1,3.045,6.919,47.806,47.806,0,0,0,9.215.165,47.216,47.216,0,0,0-4.747-7.91,30.686,30.686,0,0,1-7.513.827" transform="translate(-258.795 -180.276)" fill="#018837"/>
                  <path id="Path_55" data-name="Path 55" d="M245.662,197.127a47.25,47.25,0,0,0-8.711,3,47.832,47.832,0,0,0,7.167,5.8,30.643,30.643,0,0,1,6.776-3.344,31.047,31.047,0,0,1-5.228-5.461" transform="translate(-236.947 -172.51)" fill="#018837"/>
                  <path id="Path_56" data-name="Path 56" d="M318.41,209.815a30.52,30.52,0,0,1-6.772,3.345,30.68,30.68,0,0,1,5.225,5.458,47.005,47.005,0,0,0,8.71-3,47.052,47.052,0,0,0-7.167-5.8" transform="translate(-259.804 -176.394)" fill="#018837"/>
                  <path id="Path_57" data-name="Path 57" d="M250.89,213.159a30.485,30.485,0,0,1-6.774-3.345,47.488,47.488,0,0,0-7.167,5.805,47.213,47.213,0,0,0,8.71,3,30.875,30.875,0,0,1,5.228-5.458" transform="translate(-236.948 -176.394)" fill="#018837"/>
                  <path id="Path_58" data-name="Path 58" d="M311.638,202.588a30.7,30.7,0,0,1,6.772,3.344,47.338,47.338,0,0,0,7.167-5.8,46.946,46.946,0,0,0-8.71-3,30.835,30.835,0,0,1-5.225,5.461" transform="translate(-259.804 -172.511)" fill="#018837"/>
                  <path id="Path_59" data-name="Path 59" d="M247.412,222.5a47.486,47.486,0,0,0-4.743,7.912,47.739,47.739,0,0,0,9.214-.165,31.012,31.012,0,0,1,3.039-6.919,30.646,30.646,0,0,1-7.512-.827" transform="translate(-238.697 -180.277)" fill="#018837"/>
                  <path id="Path_60" data-name="Path 60" d="M315.855,193.573a47.431,47.431,0,0,0,4.745-7.91,47.692,47.692,0,0,0-9.217.168,30.377,30.377,0,0,1-3.043,6.919,30.692,30.692,0,0,1,7.513.827" transform="translate(-258.795 -168.957)" fill="#018837"/>
                  <path id="Path_61" data-name="Path 61" d="M262.506,231.067a30.694,30.694,0,0,1-7.334,1.8,47.163,47.163,0,0,0-1.759,9.054,47.6,47.6,0,0,0,8.6-3.308,30.612,30.612,0,0,1,.493-7.552" transform="translate(-241.984 -182.899)" fill="#018837"/>
                  <path id="Path_62" data-name="Path 62" d="M302.154,183.771a30.506,30.506,0,0,1,7.337-1.792,47.186,47.186,0,0,0,1.76-9.057,47.286,47.286,0,0,0-8.6,3.308,30.544,30.544,0,0,1-.495,7.548" transform="translate(-256.901 -165.101)" fill="#018837"/>
                  <path id="Path_63" data-name="Path 63" d="M265.8,240.095a47.45,47.45,0,0,0,1.44,9.107,47.46,47.46,0,0,0,6.951-6.051,30.9,30.9,0,0,1-2.112-7.26,31.014,31.014,0,0,1-6.28,4.2" transform="translate(-245.78 -184.375)" fill="#018837"/>
                  <path id="Path_64" data-name="Path 64" d="M299.169,173.667a47.77,47.77,0,0,0-1.439-9.107,47,47,0,0,0-6.951,6.051,30.887,30.887,0,0,1,2.11,7.255,30.944,30.944,0,0,1,6.28-4.2" transform="translate(-253.421 -162.543)" fill="#018837"/>
                  <path id="Path_65" data-name="Path 65" d="M279.145,185.642a21.192,21.192,0,0,1,2.291-6.264,30.6,30.6,0,0,0-4.47-6.1,30.828,30.828,0,0,0-2.112,7.257,21.122,21.122,0,0,1,4.291,5.1" transform="translate(-248.547 -165.213)" fill="#73be1e"/>
                  <path id="Path_66" data-name="Path 66" d="M286.628,228.536a21.192,21.192,0,0,1-2.288,6.264,30.634,30.634,0,0,0,4.47,6.1,31.006,31.006,0,0,0,2.11-7.261,21.161,21.161,0,0,1-4.292-5.1" transform="translate(-251.449 -182.124)" fill="#73be1e"/>
                  <path id="Path_67" data-name="Path 67" d="M266.279,185.231a21.167,21.167,0,0,1,5.775,3.326,21.222,21.222,0,0,1,.011-6.671,30.87,30.87,0,0,0-6.281-4.2,30.532,30.532,0,0,0,.494,7.542" transform="translate(-245.759 -166.562)" fill="#73be1e"/>
                  <path id="Path_68" data-name="Path 68" d="M299.6,229.6a21.16,21.16,0,0,1-5.771-3.32,21.309,21.309,0,0,1-.012,6.668,30.974,30.974,0,0,0,6.279,4.2,30.59,30.59,0,0,0-.495-7.552" transform="translate(-254.352 -181.433)" fill="#73be1e"/>
                  <path id="Path_69" data-name="Path 69" d="M265.553,194.036a21.091,21.091,0,0,1-2.271-6.271,30.538,30.538,0,0,0-7.334-1.792,30.969,30.969,0,0,0,3.041,6.919,21.187,21.187,0,0,1,6.566,1.147" transform="translate(-242.76 -169.096)" fill="#73be1e"/>
                  <path id="Path_70" data-name="Path 70" d="M298.884,222.035a21.144,21.144,0,0,1,2.269,6.267,30.6,30.6,0,0,0,7.337,1.8,30.428,30.428,0,0,0-3.043-6.919,21.129,21.129,0,0,1-6.562-1.15" transform="translate(-255.901 -180.134)" fill="#73be1e"/>
                  <path id="Path_71" data-name="Path 71" d="M254.729,202.225a21.088,21.088,0,0,1,6.561-1.167,21.152,21.152,0,0,1-4.273-5.115,30.7,30.7,0,0,0-7.512.827,31,31,0,0,0,5.228,5.461" transform="translate(-240.787 -172.142)" fill="#73be1e"/>
                  <path id="Path_72" data-name="Path 72" d="M308.744,214.635a21.226,21.226,0,0,1-6.56,1.166,21.054,21.054,0,0,1,4.273,5.118,30.631,30.631,0,0,0,7.515-.827,30.679,30.679,0,0,0-5.225-5.458" transform="translate(-256.911 -177.87)" fill="#73be1e"/>
                  <path id="Path_73" data-name="Path 73" d="M259.811,208.338A21.225,21.225,0,0,1,254.048,205a30.641,30.641,0,0,0-6.776,3.344,30.493,30.493,0,0,0,6.776,3.345,21.1,21.1,0,0,1,5.763-3.345" transform="translate(-240.106 -174.918)" fill="#73be1e"/>
                  <path id="Path_74" data-name="Path 74" d="M303.328,208.338a21.045,21.045,0,0,1,5.767,3.345,30.535,30.535,0,0,0,6.772-3.345A30.683,30.683,0,0,0,309.095,205a21.163,21.163,0,0,1-5.767,3.344" transform="translate(-257.261 -174.918)" fill="#73be1e"/>
                  <path id="Path_75" data-name="Path 75" d="M257.016,220.92a21.1,21.1,0,0,1,4.273-5.118,21.133,21.133,0,0,1-6.56-1.166,30.892,30.892,0,0,0-5.228,5.458,30.717,30.717,0,0,0,7.512.827" transform="translate(-240.789 -177.87)" fill="#73be1e"/>
                  <path id="Path_76" data-name="Path 76" d="M306.457,195.939a21.067,21.067,0,0,1-4.273,5.115,21.12,21.12,0,0,1,6.559,1.169,30.808,30.808,0,0,0,5.225-5.461,30.654,30.654,0,0,0-7.513-.827" transform="translate(-256.912 -172.145)" fill="#73be1e"/>
                  <path id="Path_77" data-name="Path 77" d="M265.554,222.035a21.145,21.145,0,0,1-6.566,1.15,30.942,30.942,0,0,0-3.041,6.919,30.659,30.659,0,0,0,7.334-1.8,21.071,21.071,0,0,1,2.271-6.267" transform="translate(-242.761 -180.134)" fill="#73be1e"/>
                  <path id="Path_78" data-name="Path 78" d="M298.884,194.037a21.166,21.166,0,0,1,6.562-1.147,30.462,30.462,0,0,0,3.043-6.919,30.5,30.5,0,0,0-7.337,1.792,21.158,21.158,0,0,1-2.269,6.271" transform="translate(-255.901 -169.096)" fill="#73be1e"/>
                  <path id="Path_79" data-name="Path 79" d="M279.145,228.537a21.113,21.113,0,0,1-4.291,5.1,30.9,30.9,0,0,0,2.112,7.261,30.773,30.773,0,0,0,4.47-6.1,21.214,21.214,0,0,1-2.291-6.264" transform="translate(-248.548 -182.125)" fill="#73be1e"/>
                  <path id="Path_80" data-name="Path 80" d="M272.055,226.282a21.2,21.2,0,0,1-5.775,3.32,30.619,30.619,0,0,0-.493,7.552,31.014,31.014,0,0,0,6.28-4.2,21.228,21.228,0,0,1-.011-6.668" transform="translate(-245.758 -181.433)" fill="#73be1e"/>
                  <path id="Path_81" data-name="Path 81" d="M286.628,185.641a21.118,21.118,0,0,1,4.292-5.1,30.859,30.859,0,0,0-2.11-7.257,30.463,30.463,0,0,0-4.47,6.1,21.176,21.176,0,0,1,2.288,6.264" transform="translate(-251.449 -165.211)" fill="#73be1e"/>
                  <path id="Path_82" data-name="Path 82" d="M293.833,188.554a21.125,21.125,0,0,1,5.771-3.326,30.578,30.578,0,0,0,.495-7.546,30.958,30.958,0,0,0-6.28,4.2,21.285,21.285,0,0,1,.014,6.67" transform="translate(-254.351 -166.56)" fill="#73be1e"/>
                  <path id="Path_83" data-name="Path 83" d="M276.24,197.82a17.978,17.978,0,0,0-4.31-5.162,18.077,18.077,0,0,0,2.309,6.315,18.044,18.044,0,0,0-5.812-3.37,17.91,17.91,0,0,0,4.327,5.145,17.937,17.937,0,0,0-6.616-1.177,17.989,17.989,0,0,0,5.823,3.353,18.014,18.014,0,0,0-6.616,1.158,18.027,18.027,0,0,0,6.616,1.156,18.015,18.015,0,0,0-5.823,3.355,17.937,17.937,0,0,0,6.616-1.177,17.911,17.911,0,0,0-4.327,5.147,18.111,18.111,0,0,0,5.812-3.37,18.073,18.073,0,0,0-2.309,6.318,18.022,18.022,0,0,0,4.31-5.159,18.137,18.137,0,0,0-.008,6.723,18.123,18.123,0,0,0,2.289-6.321,18.136,18.136,0,0,0,2.288,6.321,18.065,18.065,0,0,0-.01-6.723,18.11,18.11,0,0,0,4.313,5.159,18.07,18.07,0,0,0-2.311-6.318,18.171,18.171,0,0,0,5.814,3.37,17.957,17.957,0,0,0-4.324-5.147,17.925,17.925,0,0,0,6.616,1.177,18.157,18.157,0,0,0-5.825-3.358,17.917,17.917,0,0,0,6.616-1.154,17.977,17.977,0,0,0-6.616-1.158,18.057,18.057,0,0,0,5.825-3.353,17.959,17.959,0,0,0-6.616,1.177,17.9,17.9,0,0,0,4.328-5.145,18.145,18.145,0,0,0-5.814,3.371,18.091,18.091,0,0,0,2.311-6.317,18.064,18.064,0,0,0-4.313,5.162,18.081,18.081,0,0,0,.01-6.726,18.081,18.081,0,0,0-2.288,6.322,18.069,18.069,0,0,0-2.289-6.322,18.155,18.155,0,0,0,.008,6.726" transform="translate(-245.634 -170.665)" fill="#fff"/>
                  <path id="Path_84" data-name="Path 84" d="M279.035,195.567a18.153,18.153,0,0,1-.008-6.726,21.145,21.145,0,0,0-4.292-5.1,21.245,21.245,0,0,0-.011,6.671,17.975,17.975,0,0,1,4.31,5.162" transform="translate(-248.428 -168.411)" fill="#ffe001"/>
                  <path id="Path_85" data-name="Path 85" d="M287.621,218.849a18.064,18.064,0,0,1,.011,6.723,21.171,21.171,0,0,0,4.291,5.1,21.289,21.289,0,0,0,.012-6.668,18.108,18.108,0,0,1-4.314-5.159" transform="translate(-252.455 -179.159)" fill="#ffe001"/>
                  <path id="Path_86" data-name="Path 86" d="M272.291,191.883a21.149,21.149,0,0,0-5.775-3.326,21.13,21.13,0,0,0,2.271,6.271,18.045,18.045,0,0,1,5.812,3.37,18.088,18.088,0,0,1-2.309-6.315" transform="translate(-245.996 -169.888)" fill="#ffe001"/>
                  <path id="Path_87" data-name="Path 87" d="M292.819,223.5a21.178,21.178,0,0,0,5.771,3.32,21.141,21.141,0,0,0-2.27-6.267,18.142,18.142,0,0,1-5.814-3.37,18.1,18.1,0,0,1,2.313,6.318" transform="translate(-253.337 -178.647)" fill="#ffe001"/>
                  <path id="Path_88" data-name="Path 88" d="M271.221,202.234a17.881,17.881,0,0,1-4.327-5.145,21.185,21.185,0,0,0-6.566-1.147,21.131,21.131,0,0,0,4.273,5.115,17.966,17.966,0,0,1,6.616,1.177" transform="translate(-244.101 -172.148)" fill="#ffe001"/>
                  <path id="Path_89" data-name="Path 89" d="M292.653,214.619a17.946,17.946,0,0,1,4.324,5.147,21.137,21.137,0,0,0,6.562,1.15,21.025,21.025,0,0,0-4.273-5.118,17.924,17.924,0,0,1-6.616-1.177" transform="translate(-253.995 -177.865)" fill="#ffe001"/>
                  <path id="Path_90" data-name="Path 90" d="M269.421,206.666a17.971,17.971,0,0,1-5.825-3.353,21.06,21.06,0,0,0-6.561,1.169,21.225,21.225,0,0,0,5.763,3.344,18.016,18.016,0,0,1,6.616-1.158" transform="translate(-243.093 -174.404)" fill="#ffe001"/>
                  <path id="Path_91" data-name="Path 91" d="M293.792,210.968a18.17,18.17,0,0,1,5.823,3.358,21.2,21.2,0,0,0,6.561-1.166,21.053,21.053,0,0,0-5.767-3.345,17.906,17.906,0,0,1-6.616,1.154" transform="translate(-254.343 -176.394)" fill="#ffe001"/>
                  <path id="Path_92" data-name="Path 92" d="M262.8,209.815a21.1,21.1,0,0,0-5.763,3.345,21.132,21.132,0,0,0,6.559,1.166,18.023,18.023,0,0,1,5.823-3.355,18.027,18.027,0,0,1-6.616-1.156" transform="translate(-243.094 -176.394)" fill="#ffe001"/>
                  <path id="Path_93" data-name="Path 93" d="M300.409,207.825a21.167,21.167,0,0,0,5.767-3.344,21.1,21.1,0,0,0-6.559-1.168,18.066,18.066,0,0,1-5.825,3.354,17.992,17.992,0,0,1,6.616,1.158" transform="translate(-254.342 -174.404)" fill="#ffe001"/>
                  <path id="Path_94" data-name="Path 94" d="M271.22,214.619A17.94,17.94,0,0,1,264.6,215.8a21.086,21.086,0,0,0-4.273,5.118,21.147,21.147,0,0,0,6.566-1.15,17.884,17.884,0,0,1,4.326-5.147" transform="translate(-244.1 -177.865)" fill="#ffe001"/>
                  <path id="Path_95" data-name="Path 95" d="M292.646,202.234a17.988,17.988,0,0,1,6.616-1.177,21.09,21.09,0,0,0,4.273-5.115,21.171,21.171,0,0,0-6.562,1.147,17.9,17.9,0,0,1-4.328,5.145" transform="translate(-253.993 -172.148)" fill="#ffe001"/>
                  <path id="Path_96" data-name="Path 96" d="M281.037,225.748a21.212,21.212,0,0,0,2.291,6.264,21.21,21.21,0,0,0,2.289-6.264,18.114,18.114,0,0,1-2.289-6.322,18.1,18.1,0,0,1-2.291,6.322" transform="translate(-250.439 -179.335)" fill="#ffe001"/>
                  <path id="Path_97" data-name="Path 97" d="M279.035,218.848a18.019,18.019,0,0,1-4.31,5.159,21.226,21.226,0,0,0,.011,6.668,21.142,21.142,0,0,0,4.292-5.1,18.134,18.134,0,0,1,.008-6.723" transform="translate(-248.428 -179.158)" fill="#ffe001"/>
                  <path id="Path_98" data-name="Path 98" d="M268.787,220.548a21.073,21.073,0,0,0-2.271,6.267,21.2,21.2,0,0,0,5.775-3.32,18.105,18.105,0,0,1,2.307-6.318,18.089,18.089,0,0,1-5.811,3.37" transform="translate(-245.996 -178.648)" fill="#ffe001"/>
                  <path id="Path_99" data-name="Path 99" d="M285.616,188.33a21.173,21.173,0,0,0-2.288-6.264,21.194,21.194,0,0,0-2.291,6.264,18.089,18.089,0,0,1,2.292,6.325,18.091,18.091,0,0,1,2.288-6.322" transform="translate(-250.439 -167.901)" fill="#ffe001"/>
                  <path id="Path_100" data-name="Path 100" d="M287.621,195.569a18.065,18.065,0,0,1,4.314-5.162,21.314,21.314,0,0,0-.013-6.671,21.1,21.1,0,0,0-4.291,5.1,18.08,18.08,0,0,1-.011,6.726" transform="translate(-252.455 -168.413)" fill="#ffe001"/>
                  <path id="Path_101" data-name="Path 101" d="M296.32,194.828a21.16,21.16,0,0,0,2.269-6.271,21.124,21.124,0,0,0-5.771,3.326,18.127,18.127,0,0,1-2.313,6.317,18.113,18.113,0,0,1,5.814-3.371" transform="translate(-253.337 -169.888)" fill="#ffe001"/>
                </g>
              </g>
            </g>
          </g>
        </g>
        <path id="Path_102" data-name="Path 102" d="M149.105,164.561a31.4,31.4,0,1,0,31.31,31.4,31.4,31.4,0,0,0-31.31-31.4" transform="translate(-117.604 -162.545)" fill="#018837"/>
        <path id="Path_103" data-name="Path 103" d="M167.695,209.328a4.107,4.107,0,1,1,3.891-4.084,3.881,3.881,0,0,1-3.891,4.084m.072-13.48c-5.91,0-9.837,3.759-9.837,9.36,0,5.746,3.782,9.433,9.728,9.433,5.909,0,9.8-3.687,9.8-9.4,0-5.637-3.859-9.4-9.692-9.4m-15.226-8.2A3.225,3.225,0,0,0,148.9,190.9c0,2.023,1.44,3.287,3.746,3.287a3.232,3.232,0,0,0,3.64-3.283c0-2.025-1.442-3.253-3.748-3.253m.4,8.384h-.721c-1.766,0-3.1.827-3.1,3.36v11.565c0,2.566,1.3,3.362,3.17,3.362h.721c1.766,0,3.032-.868,3.032-3.362V199.393c0-2.6-1.225-3.36-3.1-3.36m-9.433-5.458h-1.045c-1.981,0-3.063,1.121-3.063,3.362v10.806c0,2.781-.937,3.759-3.136,3.759a5.3,5.3,0,0,1-4.252-2.132,3.614,3.614,0,0,0-2.378,3.614c0,2.894,2.7,4.661,7.71,4.661,6.089,0,9.3-3.072,9.3-9.794V193.934c0-2.241-1.081-3.362-3.134-3.362" transform="translate(-121.191 -169.615)" fill="#fff"/>
        <path id="Path_104" data-name="Path 104" d="M221.672,164.561v62.808h1.09V164.561Z" transform="translate(-149.359 -162.544)" fill="#018837"/>
      </g>
      <g id="Group_19" data-name="Group 19" transform="translate(124.847)">
        <path id="Path_105" data-name="Path 105" d="M306.18,142.171c0,1.9-.674,4.531-3.367,4.531-3.254,0-3.254-3.647-3.254-4.411,0-.743,0-4.646,3.344-4.646C305.955,137.64,306.18,141.01,306.18,142.171ZM299.605,132h-2.182v14.03l-.048,2.09h2.11l.048-1.764a3.743,3.743,0,0,0,1.141,1.184,4.61,4.61,0,0,0,2.6.743,4.935,4.935,0,0,0,4.094-2,6.732,6.732,0,0,0,1.112-4.252,6.138,6.138,0,0,0-1.369-4.391,4.775,4.775,0,0,0-3.7-1.487,3.9,3.9,0,0,0-3.81,2Z" transform="translate(-297.375 -132)" fill="#018837"/>
        <path id="Path_106" data-name="Path 106" d="M317.845,144.523c0-1.046,0-4.74,3.486-4.74,2.577,0,3.207,2.183,3.207,4.273a6.53,6.53,0,0,1-.952,3.647,2.974,2.974,0,0,1-2.462,1.138C318.055,148.846,317.845,145.939,317.845,144.523Zm-2.088,9.961h2.16V148.7a4.032,4.032,0,0,0,3.584,1.742c2.788,0,5.318-1.9,5.318-6.249,0-4.321-2.389-6.04-4.9-6.04a4.535,4.535,0,0,0-3.975,2.114l-.047-1.93h-2.205c.047,1.115.07,1.393.07,1.9Z" transform="translate(-302.978 -133.888)" fill="#018837"/>
      </g>
    </g>
  </g>
</svg>
